<mxGraphModel dx="1098" dy="988" grid="1" gridSize="10" guides="1" tooltips="1" connect="1" arrows="1" fold="1" page="1" pageScale="1" pageWidth="827" pageHeight="1169" math="0" shadow="0">
  <root>
    <mxCell id="0" />
    <mxCell id="1" parent="0" />
    <mxCell id="udLRl9s1AJqRxrEQ5kl6-6" value="model" style="shape=folder;fontStyle=1;spacingTop=10;tabWidth=40;tabHeight=14;tabPosition=left;html=1;whiteSpace=wrap;fillColor=none;verticalAlign=top;" parent="1" vertex="1">
      <mxGeometry x="100" y="240" width="320" height="190" as="geometry" />
    </mxCell>
    <mxCell id="udLRl9s1AJqRxrEQ5kl6-2" value="exercise&lt;br&gt;manager" style="shape=module;align=left;spacingLeft=20;align=center;verticalAlign=top;whiteSpace=wrap;html=1;" parent="1" vertex="1">
      <mxGeometry x="120" y="360" width="120" height="50" as="geometry" />
    </mxCell>
    <mxCell id="udLRl9s1AJqRxrEQ5kl6-3" value="training&lt;br&gt;provider" style="shape=module;align=left;spacingLeft=20;align=center;verticalAlign=top;whiteSpace=wrap;html=1;" parent="1" vertex="1">
      <mxGeometry x="280" y="290" width="120" height="50" as="geometry" />
    </mxCell>
    <mxCell id="udLRl9s1AJqRxrEQ5kl6-4" value="training&lt;br&gt;manager" style="shape=module;align=left;spacingLeft=20;align=center;verticalAlign=top;whiteSpace=wrap;html=1;" parent="1" vertex="1">
      <mxGeometry x="280" y="360" width="120" height="50" as="geometry" />
    </mxCell>
    <mxCell id="udLRl9s1AJqRxrEQ5kl6-5" value="exercise&lt;br&gt;provider" style="shape=module;align=left;spacingLeft=20;align=center;verticalAlign=top;whiteSpace=wrap;html=1;" parent="1" vertex="1">
      <mxGeometry x="120" y="290" width="120" height="50" as="geometry" />
    </mxCell>
    <mxCell id="udLRl9s1AJqRxrEQ5kl6-7" value="view" style="shape=folder;fontStyle=1;spacingTop=10;tabWidth=40;tabHeight=14;tabPosition=left;html=1;whiteSpace=wrap;fillColor=none;verticalAlign=top;" parent="1" vertex="1">
      <mxGeometry x="100" y="40" width="320" height="180" as="geometry" />
    </mxCell>
    <mxCell id="udLRl9s1AJqRxrEQ5kl6-8" value="exercise&lt;br&gt;renderer" style="shape=module;align=left;spacingLeft=20;align=center;verticalAlign=top;whiteSpace=wrap;html=1;" parent="1" vertex="1">
      <mxGeometry x="120" y="150" width="120" height="50" as="geometry" />
    </mxCell>
    <mxCell id="udLRl9s1AJqRxrEQ5kl6-10" value="style.css" style="shape=note;whiteSpace=wrap;html=1;backgroundOutline=1;darkOpacity=0.05;size=20;" parent="1" vertex="1">
      <mxGeometry x="280" y="90" width="100" height="40" as="geometry" />
    </mxCell>
    <mxCell id="udLRl9s1AJqRxrEQ5kl6-11" value="index.html" style="shape=note;whiteSpace=wrap;html=1;backgroundOutline=1;darkOpacity=0.05;size=20;" parent="1" vertex="1">
      <mxGeometry x="140" y="90" width="100" height="40" as="geometry" />
    </mxCell>
    <mxCell id="udLRl9s1AJqRxrEQ5kl6-13" value="" style="shape=cylinder3;whiteSpace=wrap;html=1;boundedLbl=1;backgroundOutline=1;size=15;" parent="1" vertex="1">
      <mxGeometry x="230" y="450" width="60" height="80" as="geometry" />
    </mxCell>
    <mxCell id="7BKiS9sME2CYD8oZwIq3-1" value="training&lt;br&gt;renderer" style="shape=module;align=left;spacingLeft=20;align=center;verticalAlign=top;whiteSpace=wrap;html=1;" parent="1" vertex="1">
      <mxGeometry x="260" y="150" width="120" height="50" as="geometry" />
    </mxCell>
  </root>
</mxGraphModel>
